<?xml version="1.0" encoding="iso-8859-1"?>
<!-- Generator: Adobe Illustrator 16.0.0, SVG Export Plug-In . SVG Version: 6.00 Build 0)  -->
<!DOCTYPE svg PUBLIC "-//W3C//DTD SVG 1.1//EN" "http://www.w3.org/Graphics/SVG/1.1/DTD/svg11.dtd">
<svg version="1.1" id="&#x56FE;&#x5C42;_1" xmlns="http://www.w3.org/2000/svg" xmlns:xlink="http://www.w3.org/1999/xlink" x="0px"
	 y="0px" width="314.65px" height="314.65px" viewBox="0 0 314.65 314.65" style="enable-background:new 0 0 314.65 314.65;"
	 xml:space="preserve">
<path style="fill:none;stroke:#000000;stroke-miterlimit:10;" d="M166.004,161.04c0,3.132-2.616,5.669-5.844,5.669h-5.32
	c-3.228,0-5.844-2.537-5.844-5.669v-1.62c0-3.132,2.616-5.67,5.844-5.67h5.32c3.228,0,5.844,2.538,5.844,5.67V161.04z"/>
<path style="fill:none;stroke:#000000;stroke-miterlimit:10;" d="M153.375,154.25v-2.31c0-2.136,1.731-3.867,3.867-3.867l0,0
	c2.137,0,3.867,1.731,3.867,3.867v2.31"/>
<path style="fill:none;stroke:#000000;stroke-miterlimit:10;" d="M157.113,162.427c-1.077-0.28-1.871-1.259-1.871-2.423
	c0-1.383,1.121-2.504,2.504-2.504s2.504,1.121,2.504,2.504c0,1.094-0.701,2.023-1.68,2.365"/>
<path style="fill:none;stroke:#000000;stroke-miterlimit:10;" d="M158.891,161.91v1.316c0,0.596-0.482,1.078-1.078,1.078l0,0
	c-0.595,0-1.078-0.482-1.078-1.078v-1.254"/>
<path style="fill:none;stroke:#000000;stroke-miterlimit:10;" d="M158.891,162.23"/>
<path style="fill:none;stroke:#000000;stroke-miterlimit:10;" d="M157.812,159.234"/>
<path style="fill:none;stroke:#000000;stroke-miterlimit:10;" d="M156.734,162.293"/>
</svg>
