<?xml version="1.0" standalone="no"?>
<!DOCTYPE svg PUBLIC "-//W3C//DTD SVG 1.1//EN" "http://www.w3.org/Graphics/SVG/1.1/DTD/svg11.dtd" >
<!--
2013-9-30: Created.
-->
<svg>
<metadata>
Created by iconfont
</metadata>
<defs>

<font id="iconfont" horiz-adv-x="1024" >
  <font-face
    font-family="iconfont"
    font-weight="500"
    font-stretch="normal"
    units-per-em="1024"
    ascent="896"
    descent="-128"
  />
    <missing-glyph />
    
    <glyph glyph-name="weitaoshuzi1" unicode="&#58920;" d="M509.030365 748.142623l104.329137 0 0-880.538611L475.645001-132.395988c0 166.926824 0 378.367467 0 634.32193-52.859905-38.949081-126.586047-77.899184-221.178425-116.849288l0 133.541459C393.572774 577.041734 478.42737 653.550245 509.030365 748.142623z"  horiz-adv-x="1024" />

    
    <glyph glyph-name="weitaoshuzi4" unicode="&#58923;" d="M831.246975 191.49782l0-125.195374c-25.039279 0-63.98836 0-116.849288 0 0-86.24527 0-153.015999 0-200.312188l-133.541459 0c0 47.296189 0 114.066919 0 200.312188-150.23363 0-279.602046 0-388.105249 0l0 95.983051L610.069573 746.528869l104.329137 0c0-164.144454 0-349.155145 0-555.032072C767.258615 191.49782 806.208718 191.49782 831.246975 191.49782zM580.857251 191.49782 580.857251 512.831316 355.505783 191.49782 580.857251 191.49782z"  horiz-adv-x="1024" />

    
    <glyph glyph-name="weitaoshuzi8" unicode="&#58927;" d="M668.493194 317.359366c97.373725-36.167734 148.842956-109.893876 154.407696-221.178425-8.346085-153.015999-111.284549-233.697553-308.814368-242.043638-200.312188 5.564739-304.641325 89.027639-312.987411 250.390747 2.78237 102.938464 54.251601 173.882236 154.407696 212.831316-72.335469 41.73145-111.284549 102.938464-116.849288 183.620018 13.910824 155.798369 104.329137 237.870596 271.25596 246.216681 166.926824-11.128455 258.736832-94.592378 275.429003-250.389724C779.777743 418.907157 740.828662 359.09184 668.493194 317.359366zM514.086521-37.359494c100.156094 5.564739 154.407696 50.078559 162.753781 133.541459-2.78237 105.71981-58.424644 159.971411-166.926824 162.753781-102.938464-8.346085-157.189042-59.815317-162.753781-154.407696C355.505783 18.28278 411.148058-29.013409 514.086521-37.359494zM509.913479 626.174758c-77.899184-8.346085-119.630634-47.296189-125.195374-116.848265 2.78237-89.027639 45.904493-134.932132 129.368416-137.714502 80.681554 2.78237 122.413004 45.904493 125.195374 129.368416C633.717156 576.096199 590.594009 617.827649 509.913479 626.174758z"  horiz-adv-x="1024" />

    
    <glyph glyph-name="weitaoshuzi9" unicode="&#58929;" d="M240.08503 47.030521l129.368416 41.73145c22.25691-83.4629 68.161403-123.803677 137.714502-121.022331 119.630634 2.78237 180.837648 93.200682 183.620018 271.25596-41.73145-63.98836-105.71981-95.983051-191.966103-95.983051-172.490539 8.346085-264.300548 107.111506-275.429003 296.29524C237.302661 631.273892 333.285712 734.212356 511.340991 748.12318c219.786729 8.346085 326.898235-134.932132 321.334519-429.836699 2.78237-311.596737-107.111506-466.004433-329.680605-463.222063C366.671077-139.371866 279.034111-75.382483 240.08503 47.030521zM511.340991 622.927807c-94.592378-2.78237-143.279241-62.597687-146.060587-179.445952 0-116.849288 48.686862-176.664605 146.060587-179.445952 116.849288 2.78237 176.664605 58.424644 179.445952 166.926824C693.569312 561.720793 633.753995 625.710177 511.340991 622.927807z"  horiz-adv-x="1024" />

    
    <glyph glyph-name="weitaoshuzi0" unicode="&#58939;" d="M209.445196 313.589506c5.564739 294.904567 105.71981 445.138196 300.468283 450.702935 203.094558 0 304.641325-150.23363 304.641325-450.702935-2.78237-289.339828-102.938464-436.792111-300.468283-442.355827C310.991963-128.76632 209.445196 18.685963 209.445196 313.589506zM355.505783 313.589506c-2.78237-228.132814 50.078559-338.02669 158.579715-329.680605 105.71981-5.564739 157.189042 104.329137 154.407696 329.680605 2.78237 228.133837-50.078559 338.02669-158.580738 329.680605C409.757384 637.706395 358.288153 527.812519 355.505783 313.589506z"  horiz-adv-x="1024" />

    
    <glyph glyph-name="weitaoshuzi2" unicode="&#58937;" d="M801.180486 3.72625l0-116.849288L212.763049-113.123039 212.763049-29.659115c63.98836 116.849288 157.189042 219.786729 279.602046 308.814368 122.413004 86.24527 180.837648 162.753781 175.272909 229.52451 0 83.4629-50.078559 125.195374-150.23363 125.195374-77.899184-2.78237-129.368416-50.078559-154.407696-141.887544l-133.541459 58.424644C282.316148 692.298757 383.862915 763.24253 534.097568 763.24253c172.490539-8.346085 264.300548-90.418312 275.429003-246.216681 13.910824-111.284549-57.032948-217.004359-212.831316-317.161477-97.373725-72.335469-166.926824-137.714502-208.658274-196.139146C560.527521 3.72625 698.242022 3.72625 801.180486 3.72625z"  horiz-adv-x="1024" />

    
    <glyph glyph-name="weitaoshuzi3" unicode="&#58938;" d="M207.359181 102.859038l141.887544 33.385365c11.128455-97.373725 62.597687-147.452283 154.407696-150.23363 114.066919-2.78237 169.709193 48.686862 166.926824 154.407696-8.346085 83.4629-63.98836 126.586047-166.926824 129.368416L399.32426 269.786884 399.32426 390.807169l70.943772 0c105.71981 0 161.363108 44.51382 166.926824 133.541459-2.78237 72.334445-44.51382 109.893876-125.195374 112.675222-80.681554-5.564739-129.368416-51.469232-146.060587-137.714502l-141.887544 33.385365c38.949081 150.23363 133.541459 226.742141 283.775088 229.52451 178.055279-2.78237 269.865287-83.463923 275.429003-242.043638 0-83.4629-45.904493-143.279241-137.714502-179.445952 111.284549-44.51382 168.317497-114.066919 171.099866-208.658274-11.128455-166.926824-112.675222-254.56379-304.641325-262.909875C339.508943-128.057169 237.962176-50.157985 207.359181 102.859038z"  horiz-adv-x="1024" />

    
    <glyph glyph-name="weitaoshuzi5" unicode="&#58940;" d="M290.822598 741.358103l479.914234 0 0-125.195374L407.670863 616.16273 386.804626 424.196627c33.385365 27.821649 80.681554 43.123147 141.887544 45.904493 180.837648-11.128455 276.8207-108.50218 287.949154-292.122197-5.564739-200.312188-105.71981-303.250652-300.468283-308.814368-172.490539 0-275.429003 79.289857-308.814368 237.870596l137.714502 29.212322c16.692171-100.156094 70.943772-150.23363 162.753781-150.23363 108.50218 2.78237 164.144454 63.98836 166.926824 183.620018-2.78237 111.284549-57.032948 168.317497-162.753781 171.099866-89.027639 0-146.060587-30.602995-171.099866-91.810009l-104.329137 20.866237L290.822598 741.358103z"  horiz-adv-x="1024" />

    
    <glyph glyph-name="weitaoshuzi6" unicode="&#58941;" d="M804.149315 560.793678l-133.541459-37.558407c-22.25691 80.681554-68.161403 119.630634-137.714502 116.848265-125.195374 2.78237-186.401364-86.24527-183.620018-267.082918 44.51382 61.20599 108.50218 91.810009 191.966103 91.810009 175.272909-8.346085 267.082918-105.71981 275.429003-292.122197-11.128455-189.183733-107.111506-289.339828-287.949154-300.468283-217.004359-5.564739-324.115865 134.932132-321.334519 421.490613 0 314.379107 109.893876 471.568149 329.680605 471.568149C673.390225 759.71417 762.417865 691.552767 804.149315 560.793678zM528.720312-15.104631c94.592378 2.78237 143.279241 63.98836 146.060587 183.620018-2.78237 114.066919-51.469232 172.491563-146.060587 175.272909-116.849288-2.78237-176.664605-55.642275-179.445952-158.580738C352.055706 54.448468 411.872047-12.322262 528.720312-15.104631z"  horiz-adv-x="1024" />

    
    <glyph glyph-name="weitaoshuzi7" unicode="&#58942;" d="M211.532229 743.389366l600.936565 0 0-100.156094c-166.926824-186.401364-278.211373-439.573457-333.853647-759.517303L328.380494-116.284031c47.296189 269.865287 148.842956 514.691295 304.641325 734.478024-172.490539 0-312.987411 0-421.490613 0L211.532229 743.389366 211.532229 743.389366z"  horiz-adv-x="1024" />

    
    <glyph glyph-name="shouji" unicode="&#59026;" d="M764.00284238 680.38235303c0 53.24120244-43.1599377 96.40114013-96.40114014 96.40114014l-311.75563007 0c-53.24120244 0-96.40114013-43.1599377-96.40114014-96.40114014l0-592.36537589c0-53.24120244 43.1599377-96.40114013 96.40114014-96.40114013l311.75563007 0c53.24120244 0 96.40114013 43.1599377 96.40114014 96.40114013L764.00284238 680.38235303zM294.52115059 625.68593672l434.40547324 0 0-464.98474073-434.40547324 0L294.52115059 625.68593672zM355.8676581 741.70727461L667.58101631 741.70727461c33.88092891 0 61.34650664-27.46557862 61.34650664-61.34650664l0-19.59861182-434.40547324 0 0 19.59861182C294.52115059 714.2407968800001 321.9867292 741.70727461 355.8676581 741.70727461zM667.58101631 26.692054689999964L355.8676581 26.692054689999964c-33.88092891 0-61.34650664 27.46557862-61.34650664 61.34650664l0 38.48580703 434.40547325 0 0-38.48580703C728.92662383 54.15763330000004 701.46104521 26.692054689999964 667.58101631 26.692054689999964zM513.03160039 104.55766230999996c-14.68434375 0-26.63184375-11.9475-26.63184375-26.63184376 0-14.68434375 11.9475-26.63184375 26.63184375-26.63184375s26.63004463 11.9475 26.63004463 26.63184375C539.66164502 92.61016230999996 527.71594502 104.55766230999996 513.03160039 104.55766230999996z"  horiz-adv-x="1024" />

    
    <glyph glyph-name="wuliu" unicode="&#59424;" d="M949.73333333 427.2c-1.8 4.2-3.6 7.8-7.2 11.4l-176.4 176.4C759.53333333 622.2 750.53333333 624.6 741.53333333 624L593.33333333 624c0 66-54 120-120 120L173.33333333 744C107.33333333 744 53.33333333 690 53.33333333 624l0-450C53.33333333 157.20000000000005 66.53333333 144 83.33333333 144L113.33333333 144c0-66 54-120 120-120 66 0 120 54 120 120l300 0c0-66 54-120 120-120 66 0 120 54 120 120l30 0c16.8 0 30 13.2 30 30l0 240C953.33333333 418.8 952.13333333 423.6 949.73333333 427.2zM233.33333333 84c-33 0-60 27-60 60 0 33 27 60 60 60 33 0 60-27 60-60C293.33333333 111 266.33333333 84 233.33333333 84zM533.33333333 204L336.53333333 204C316.13333333 240 277.73333333 264 233.33333333 264c-44.4 0-82.8-24-103.2-60L113.33333333 204 113.33333333 624c0 33 27 60 60 60l300 0c33 0 60-27 60-60L533.33333333 204zM773.33333333 84c-33 0-60 27-60 60 0 33 27 60 60 60 33 0 60-27 60-60C833.33333333 111 806.33333333 84 773.33333333 84zM893.33333333 204l-16.8 0c-21 36-58.8 60-103.2 60-44.4 0-82.8-24-103.2-60L593.33333333 204 593.33333333 564l135.6 0L893.33333333 399.6 893.33333333 204z"  horiz-adv-x="1024" />

    
    <glyph glyph-name="tuichu" unicode="&#58935;" d="M853.33333333 396.13781333c0-13.9264-6.144-26.53525333-15.82421333-35.18464l-157.94858667-141.75573333c-8.42410667-7.46837333-19.57205333-12.01493333-31.73034666-12.01493333-26.24170667 0-47.49312 21.10805333-47.49312 47.19957333 0 14.07658667 6.144 26.53525333 15.82421333 35.17781333l66.18453333 59.36469334L469.93408 348.92458667000005c-26.15978667 0-47.34976 21.10805333-47.34976 47.34976 0 26.09152 21.18997333 47.19957333 47.34976 47.19957333l212.41173333 0-66.18453333 59.36469333c-9.68021333 8.64938667-15.82421333 21.18314667-15.82421333 35.17781334 0 26.09152 21.25141333 47.2064 47.49312 47.2064 12.15829333 0 23.30624-4.54656 31.73034666-12.16512l157.94858667-141.74890667C847.18933333 422.66624 853.33333333 410.05738667 853.33333333 396.13781333M398.94357333 699.05066667L265.42762667 699.05066667l0-630.10816 133.51594666 0c26.16661333 0 47.34976-21.25141333 47.34976-47.34976 0-26.24170667-21.25824-47.19957333-47.34976-47.19957334L218.08469333-25.606826670000032c-26.15978667 0-47.4112 20.95786667-47.4112 47.19957334L170.67349333 746.32533333C170.66666667 772.41685333 191.92490667 793.6 218.08469333 793.6l180.85888 0c26.08469333 0 47.34976-21.18314667 47.34976-47.27466667C446.29333333 720.23381333 425.11018667 699.05066667 398.94357333 699.05066667"  horiz-adv-x="1024" />

    
    <glyph glyph-name="xiazai2" unicode="&#58936;" d="M214.41792031 258.65042718999996C143.039435 293.80099499999994 93.92841219 367.27182187999995 93.92841219 452.27019281c0 113.08716656 87.03315188 205.82652937 197.77470844 214.92596063 32.18521875 78.66858281 109.46946 134.05471125 199.69628625 134.05471125 89.51978531 0 166.32435187-54.53902219 198.93264375-132.190695 7.91175563 0.84806531 15.90889406 1.29991875 24.01923468 1.29991875 119.13394688 0 215.7183825-96.526875 215.7183825-215.7183825 0-86.91898875-51.45855094-161.85858-125.57693906-195.99223688L670.49558 258.64946812000005 670.49558 530.0916703099999 330.58555906 530.0916703099999l0-271.44124312L214.41792031 258.65042718999996 214.41792031 258.65042718999996zM408.18062937 468.09466406l0-264.43319437-92.37385031 0 184.74770063-236.91233344 184.74866062 236.91233344-92.40263062 0L592.90050969 468.09466406 408.18062937 468.09466406z"  horiz-adv-x="1024" />

    
    <glyph glyph-name="shenfenzheng" unicode="&#58932;" d="M687.43433562 689.0635668699999l214.93555407 1e-8c11.94102375 0 23.88204844-7.96068281 23.88204843-23.88204844l0 0 0-553.25977031c0-11.94102375-11.94102375-23.88204844-23.88204843-23.88204844l0 0L687.43433562 88.03970061999996l0 47.76313688 191.05350563 0L878.48784125 641.30043 687.43433562 641.30043 687.43433562 689.0635668699999 687.43433562 689.0635668699999zM687.43433562 247.25239499999998l135.32968688 0c11.94102375 0 19.90170656 7.96068281 19.90170656 15.92136563 0 11.94102375-7.96068281 19.90170656-19.90170656 19.90170656L687.43433562 283.07546719000004 687.43433562 247.25239499999998 687.43433562 247.25239499999998zM687.43433562 362.68037437l135.32968688 1e-8c11.94102375 0 19.90170656 7.96068281 19.90170656 19.90170656 0 11.94102375-7.96068281 19.90170656-19.90170656 19.90170656L687.43433562 402.48378844 687.43433562 362.68037437 687.43433562 362.68037437zM687.43433562 482.08869562l135.32968688 1e-8c11.94102375 0 19.90170656 7.96068281 19.90170656 19.90170656s-7.96068281 19.90170656-19.90170656 19.90170656L687.43433562 521.89210875 687.43433562 482.08869562zM341.14943656 689.0635668699999l346.28489906 1e-8 1e-8-47.76313688L341.14943656 641.30043 341.14943656 689.0635668699999 341.14943656 689.0635668699999zM687.43433562 88.04066063000005L341.14943656 88.04066063000005l0 47.76313687 346.28489906 0L687.43433562 88.04066063000005 687.43433562 88.04066063000005zM687.43433562 521.89210875l0-39.80245406L552.10464875 482.08965563c-7.96068281 0-15.92136563 7.96068281-15.92136563 19.90170656s7.96068281 19.90170656 15.92136563 19.90170656L687.43433562 521.89306875 687.43433562 521.89210875zM687.43433562 402.48282844l0-39.80245406L552.10464875 362.68037437c-7.96068281 0-15.92136563 7.96068281-15.92136563 19.90170657 0 11.94102375 7.96068281 19.90170656 15.92136563 19.90170656L687.43433562 402.48378844 687.43433562 402.48282844zM687.43433562 283.07450718999996l0-35.82307219L552.10464875 247.25143593999996c-7.96068281 0-15.92136563 7.96068281-15.92136563 15.92136562 0 11.94102375 7.96068281 19.90170656 15.92136563 19.90170657L687.43433562 283.07450718999996 687.43433562 283.07450718999996zM341.14943656 243.27205312l0 39.80245407 91.54689094 0 0 19.90170656 0 0 0 0c0 7.96068281-3.98034094 15.92136563-11.94102375 19.90170656-11.94102375 7.96068281-23.88204844 11.94102375-35.82211219 11.94102375l0 0 0 0-43.782795 0 0 43.782795 0 0 0 0c19.90170656 0 35.82307219 7.96068281 51.74347782 23.88204844 11.94102375 11.94102375 19.90170656 31.84273031 19.90170656 51.74347781l0 0 0 0 0 0 0 0c0 19.90170656-7.96068281 39.80245406-19.90170656 51.74347781-15.92136563 11.94102375-31.84273031 19.90170656-51.74347782 19.90170657l0 0 0 0 0 39.80245406 0 0 0 0c27.86238937 0 55.72381969-11.94102375 79.60586719-31.84273031 19.90170656-19.90170656 31.84273031-47.76313688 31.84273031-79.60586719l0 0 0 0 0 0 0 0c0-31.84273031-11.94102375-59.70416063-31.84273031-79.60586719-3.98034094-3.98034094-3.98034094-3.98034094-7.96068281-3.98034094 11.94102375-3.98034094 23.88204844-7.96068281 31.84273031-15.92136562 15.92136563-11.94102375 23.88204844-31.84273031 27.86238937-51.74347781l0 0 0 0 0-39.80341313 0-19.90170656-19.90170656 0L341.14943656 243.27013499999998zM118.25320063 689.0635668699999l222.89623593 1e-8 0-47.76313688L142.13428906 641.30043l0-505.49663344 199.01418844 0 0-47.76313687L118.25320063 88.04066063000005c-11.94102375 0-23.88204844 11.94102375-23.88204844 23.88204843L94.37115219 665.1824784400001C94.37115219 681.10384406 106.31217594 689.0635668699999 118.25320063 689.0635668699999L118.25320063 689.0635668699999zM341.14943656 565.67490469L341.14943656 565.67490469 341.14943656 565.67490469c-31.84273031 0-59.70416063-11.94102375-79.60586718-31.84273032-23.88204844-19.90170656-35.82211219-47.76313688-35.82211219-79.60586718l0 0 0 0 0 0 0 0c0-31.84273031 11.94102375-59.70416063 35.82211219-79.60586719 0 0 0-3.98034094 3.98034093-3.98034094-11.94102375-3.98034094-19.90170656-7.96068281-31.84273031-15.92136562l3.98034094 0c-19.90170656-11.94102375-27.86238937-31.84273031-27.86238938-51.74347781l0 0 0 0 0-39.80341313 0-19.90170656 19.90170657 0 111.44763843 0 0 39.80245406L245.62220375 283.07258906000004l0 19.90170657 0 0 0 0c0 7.96068281 7.96068281 15.92136563 11.94102375 19.90170656l0 0c11.94102375 7.96068281 23.88204844 11.94102375 35.82211219 11.94102375l0 0 0 0 47.76313687 0 0 43.782795 0 0 0 0c-23.88204844 0-39.80245406 7.96068281-51.74347781 23.88204844-15.92136563 11.94102375-23.88204844 31.84273031-23.88204844 51.74347781l0 0 0 0 0 0 0 0c0 19.90170656 7.96068281 39.80245406 23.88204844 51.74347781 11.94102375 11.94102375 27.86238937 19.90170656 51.74347781 19.90170656l0 0 0 0L341.1484775 565.67490469z"  horiz-adv-x="1024" />

    
    <glyph glyph-name="icon_notice" unicode="&#58885;" d="M230.75 187.125L230.75 468.375C230.75 604.44375 327.3875 717.928125 455.75 744L455.75 777.75C455.75 808.828125 480.921875 834 512 834 543.078125 834 568.25 808.828125 568.25 777.75L568.25 744C696.6125 717.928125 793.25 604.44375 793.25 468.375L793.25 187.125 821.459375 187.125C852.48125 187.125 877.625 162.14999999999998 877.625 130.875 877.625 99.796875 852.453125 74.625 821.459375 74.625L202.540625 74.625C171.51875 74.625 146.375 99.60000000000002 146.375 130.875 146.375 161.953125 171.546875 187.125 202.540625 187.125L230.75 187.125ZM596.375 18.375C596.375-28.228124999999977 558.603125-66 512-66 465.396875-66 427.625-28.228124999999977 427.625 18.375L596.375 18.375Z"  horiz-adv-x="1024" />

    
    <glyph glyph-name="shoujian" unicode="&#58890;" d="M511.06367469 803.96294531c-179.88475781 0-339.79681781-114.10215844-397.92093-283.93485187l56.83378687-19.37982094c49.82573813 145.56882469 186.89280656 243.36587812 341.08714313 243.36587812 178.47547406 0 327.0691275-130.20100406 355.45436156-300.44525812l-51.75978656 34.45216125-33.31341375-49.87946156 103.34305312-68.75850188c5.01451969-3.33757687 10.82146313-5.03466656 16.65622688-5.03466656 4.86965813 0 9.73643906 1.17136594 14.16575531 3.54095906 9.7680975 5.21214656 15.86572313 15.36782063 15.86572313 26.43295875C931.47655531 615.71745563 742.88378094 803.96294531 511.06367469 803.96294531L511.06367469 803.96294531zM512.37894312 24.633410629999958c-178.47643312 0-327.0681675 130.20004406-355.45628062 300.44429906l51.75978656-34.45216125 33.31437281 49.87946156-103.34209406 68.75946094c-9.17905687 6.1177725-21.05580375 6.703935-30.82102312 1.4927475-9.76617844-5.2102275-15.86764219-15.36782063-15.86764219-26.43199875 0-231.394155 188.59181438-419.63964469 420.41192062-419.63964469 179.91162 0 339.82463906 114.10119938 397.91997 283.93485188l-56.83378687 19.37982093C803.6700875 122.42950499999995 666.60301906 24.633410629999958 512.37894312 24.633410629999958L512.37894312 24.633410629999958zM454.53208344 613.3478625l0-176.59898625c34.50684469 49.65401437 60.8966325 109.6133625 79.16552531 179.8780425l64.17568875-11.24261719c-5.46733312-21.23712094-11.55728438-41.8477875-18.26889375-61.83295687l160.67186437 0 0-62.30112-31.61920218 0c-9.68367469-80.25918469-31.61920219-146.93397844-65.81521688-200.02054594 28.25956031-26.85795 62.30112-47.93773781 102.11796375-63.23840437-13.74172313-18.42238969-27.48344625-39.65951062-41.22229125-63.70656657-39.34868156 20.61066562-73.39024125 45.75234-102.11796375 75.41734688-30.29434031-31.2277875-66.83212781-57.46024219-109.6133625-78.69640406-10.30533281 22.79990156-22.33077937 43.72139719-36.06962437 62.77024218 40.12767375 19.82783719 74.40043687 43.09590094 102.8211675 69.79651782-21.54795094 33.10139719-38.25790125 70.26468094-50.1221775 111.48697218-4.84183688-7.49539781-9.76042219-14.83634063-14.75575594-22.01611312-10.93178813 18.89055187-24.04705594 37.70915344-39.34868156 56.44620937l0-276.14109656-60.8966325 0L393.63449188 288.49003594c-39.50601469-19.67434125-69.01656656-37.24003125-88.53357469-52.69899l-26.70061688 59.95934719c11.55344719 9.05434125 17.33160937 20.76512156 17.33160938 35.13234L295.73190969 567.4420265599999l58.0857375 0 0-236.55833344 39.81684375 21.78203157L393.63449188 613.3478625 454.53208344 613.3478625zM599.27778594 334.86499312c22.32694219 37.94323406 38.64547875 86.7367125 48.95081156 146.38523063l-92.98399688 0c-1.87360969-4.21634156-3.827805-8.43172312-5.85586968-12.64806469C558.91219344 416.75986875 575.54155906 372.18273187 599.27778594 334.86499312z"  horiz-adv-x="1024" />

    
    <glyph glyph-name="jingcha" unicode="&#58928;" d="M507.24-58.36666666999997c-31.356 0-91.115 13.707-148.229 43.798-47.629 25.094-110.044 70.24-136.915 142.794l-1.054 2.84800001-2.929 0.79999999c-28.087 7.659-56.63 23.816-78.312 44.32600001-17.163 16.234-37.623 42.474-37.623 75.27499999 0 52.217 27.923 95.262 71.138 109.66600001l4.037 1.34499999v9.268c0 7.584 3.478 11.06 8.293 15.86800001l1.731 1.72999999v2.447c0 9.595 0 18.656 4.389 27.429l0.624 1.24700001v8.853l-1.73 1.72999999c-2.187 2.187-4.881 4.88-6.592 7.22 24.354 7.873 129.777 37.83 323.17 37.83 193.394 0 298.815-29.957 323.171-37.83099999-1.712-2.34-4.404-5.033-6.59-7.22000001l-10.078-10.07799999h13.39c0.168-2.704 1.058-5.748 2.074-9.21800001 1.361-4.651 2.903-9.923 2.903-14.949v-2.445l1.728-1.72899999c4.821-4.818 8.297-8.296 8.297-15.87100001v-9.268l4.037-1.346c44.722-14.904 70.686-59.725 66.147-114.18799999l-0.02-0.243v-0.246c0-23.724-13.382-49.81-37.68-73.45300001-22.18-21.583-51.432-38.834-78.249-46.149l-2.927-0.799-1.055-2.84799999c-26.872-72.555-89.29-117.701-136.919-142.79500001-57.115-30.091-116.875-43.798-148.228-43.798zM281.072 164.55233333c31.513-115.047 186.292-164.558 231.18-164.55799999 25.988 0 75.977 12.943 121.233 37.683 40.89 22.353 93.166 62.55 110.006 127.10599999l0.191 0.732v0.759c0 11.278 12 19.153 29.184 19.15300001 15.888 0 47.599 17.372 63.146 38.946 8.213 11.396 10.933 22.793 7.899 33.03199999-0.198 15.931-5.503 26.539-10.637 36.80200001l-3.665 7.323-5.79-5.79c-4.12-4.12-12.616-8.292-20.882-8.292-17.198 0-29.183 12.734-29.183 24.162v30.06999999c0 10.362 0 26.018-5.316 41.96600001l-2.298 6.894-6.277-3.663c-53.329-31.11-147.698-64.35-252.624-64.35-107.805 0-204.761 40.431-252.961 64.53099999l-8.545 4.273v-9.553c0-3.97-0.986-9.344-2.031-15.032-1.397-7.617-2.982-16.247-2.982-25.065v-30.07099999c0-11.428-11.98-24.162-29.174-24.162-8.269 0-16.764 4.17-20.885 8.292l-5.791 5.79-3.663-7.323c-5.236-10.467-10.65-21.29-10.65-37.725 0-20.147 21.515-39.094 34.34-48.59300001 17.286-12.807 37.38-22.46 46.739-22.46 12.971-0.002 25.323-8.772 29.436-20.877zM146.801 504.31033333c-3.765 29.445-28.992 65.236-51.455 97.101-9.436 13.386-18.348 26.03-24.068 36.142-7.589 13.417-6.461 17.012-6.16 17.59600001 0.248 0.478 1.84 1.38 6.096 1.38 204.1 0 287.634 70.134 348.628 121.34299999 32.648 27.41 58.435 49.06 92.41 49.06000001 35.3 0 65.51-22.945 103.756-51.996 65.79-49.97 155.892-118.406 337.279-118.40600001 3.073 0 4.621-0.382 5.309-0.635-0.271-1.367-1.815-5.474-10.174-15.16099999-7.314-8.48-17.8-18.949-28.9-30.03100001-32.852-32.8-73.09-72.974-77.158-105.70999999-11.157 3.232-34.742 9.31-72.31 15.42499999-49.37 8.036-133.304 17.615-252.79 17.615-200.96 0-339.022-26.963-370.463-33.723zM421.147 632.3633333299999c0-16.733 15.277-34.651 45.403-53.259 21.462-13.257 42.567-21.997 43.455-22.363l2.247-0.926 2.248 0.926c0.888 0.365 21.99 9.106 43.453 22.363 30.125 18.608 45.4 36.526 45.4 53.26000001v5.904h-5.008v70.16799999H421.147v-76.073z m-34.192-445.153c-14.278 0-28.254 5.79-38.349 15.883-10.098 10.104-15.89 24.082-15.89 38.354 0 14.271 5.792 28.252 15.89 38.35700001 10.096 10.091 24.073 15.882 38.349 15.882 14.279 0 28.26-5.79 38.356-15.885 10.092-10.1 15.88-24.078 15.88-38.35400001 0-14.274-5.788-28.255-15.882-38.35599999-10.095-10.091-24.073-15.881-38.354-15.88100001z m265.625 0c-14.277 0-28.254 5.79-38.35 15.883-10.094 10.1-15.884 24.078-15.884 38.354s5.79 28.256 15.886 38.35700001c10.094 10.091 24.072 15.882 38.348 15.882s28.257-5.79 38.353-15.885c10.095-10.102 15.886-24.08 15.886-38.35400001 0-14.272-5.791-28.253-15.887-38.35599999-10.094-10.091-24.074-15.881-38.352-15.88100001z"  horiz-adv-x="1024" />

    
    <glyph glyph-name="paidanfankui" unicode="&#59023;" d="M843.6621875 481.963125c-15.133125 0-27.3065625-12.174375-27.3065625-27.3065625v-352.483125c0-11.833125-9.67125001-21.504375-21.50437501-21.504375h-563.42718749c-11.833125 0-21.504375 9.67125001-21.504375 21.504375v563.540625c0 11.833125 9.67125001 21.504375 21.504375 21.504375h351.800625c15.133125 0 27.3065625 12.174375 27.30656249 27.3065625s-12.174375 27.3065625-27.30656249 27.3065625h-351.800625c-41.9840625 0-76.1165625-34.1334375-76.1165625-76.1165625v-563.4271875c0-41.9840625 34.1334375-76.1165625 76.1165625-76.11656249h563.42718749c41.9840625 0 76.1165625 34.1334375 76.11656251 76.11656249v352.3696875c0 15.133125-12.2878125 27.3065625-27.30656251 27.3065625zM345.42875001 347.135625l-33.22312501-130.845c-2.38874999-9.33 0.34125001-19.2290625 7.16812499-26.055s16.725-9.556875 26.055-7.168125l130.845 33.223125c4.779375 1.250625 9.1021875 3.64124999 12.62906251 7.16812501l363.63375 363.63374999c24.8034375 24.8034375 24.4621875 65.5359375-0.6834375 90.795l-44.715 44.715c-25.2590625 25.2590625-65.990625 25.6003125-90.795 0.6834375l-363.7471875-363.5203125c-3.4134375-3.526875-5.9165625-7.850625-7.168125-12.6290625zM754.9146875 684.7153125c3.526875 3.526875 9.67125001 3.185625 13.6528125-0.6834375l44.715-44.715c3.8690625-3.8690625 4.2103125-10.1259375 0.6834375-13.6528125l-28.1034375-28.1034375-59.05124999 59.05125 28.10343749 28.1034375zM688.128125 618.04124999l59.05125-59.05124999-260.77875-260.6653125-59.05125 59.05125 260.77875 260.66531249zM393.4428125 314.14125001l49.8346875-49.83468751-66.7865625-16.95281249 16.95281249 66.78656249z"  horiz-adv-x="1024" />

    
    <glyph glyph-name="shipin" unicode="&#59320;" d="M861.665-16.403000010000028H159.323c-53.496 0-96.873 43.377-96.873 96.87200001V685.938c0 53.495 43.377 96.873 96.873 96.873h702.342c53.5 0 96.872-43.37799999 96.87200001-96.873v-605.469c0-53.496-43.372-96.872-96.87200001-96.87200001z m24.216 678.11800002c0 26.738-21.696 48.44000001-48.433 48.43999999H183.544c-26.73699999 0-48.439-21.702-48.43900001-48.43999999v-557.02400001c0-26.738 21.702-48.44000001 48.44000001-48.44h653.903c26.738 0 48.433 21.702 48.433 48.44V661.71500001zM650.18800001 352.03599999999994L465.012 234.71799999999996c-12.79-8.112-28.167-8.91200001-41.87599999-2.182-13.683 6.735-21.623 18.967-21.62300001 33.353V500.517c0 14.41 7.94000001 26.664 21.65000001 33.374 13.708 6.709 29.05899999 5.935 41.87399999-2.178l185.177-117.316c11.42799999-7.26500001 17.699-18.287 17.699-31.17 0.001-12.91-6.27-23.90600001-17.72499999-31.191z m0 0"  horiz-adv-x="1024" />

    
    <glyph glyph-name="jieshu" unicode="&#59117;" d="M658.3625 269.475c0-15.46875001-12.65625001-28.125-28.125-28.125h-236.41875001a28.125 28.125 0 0 0-28.12499998 28.125V498.525a28.125 28.125 0 0 0 28.125 28.125h236.41874999c15.46875001 0 28.125-12.65625001 28.125-28.125v-229.05zM954.575 383.88750000000005a441.7875 441.7875 0 0 1-442.6875 442.6875 441.39375001 441.39375001 0 0 1-312.975-129.43125001 441.225 441.225 0 0 1-129.4875-313.25624999 439.70625001 439.70625001 0 0 1 129.0375-313.5375 439.0875 439.0875 0 0 1 313.36875001-128.925c243.73125001 2.475 442.74375001 198.84375001 442.74374999 442.4625z m-833.175 0a390.4875 390.4875 0 0 0 390.4875 390.7125c217.06875001 0 393.13125001-175.89375001 393.13125001-390.7125 0-214.48125001-176.0625-390.6-393.13125001-390.6a388.74375001 388.74375001 0 0 0-390.4875 390.6z"  horiz-adv-x="1024" />

    
    <glyph glyph-name="kuaidiyuan" unicode="&#58992;" d="M859.866875 506.13375h-442.134375c2.6671875-56.8003125 26.934375-108.1340625 64.6678125-145.8675 40.1334375-40.1325 95.465625-64.8 156.399375-64.8 61.2 0 116.5340625 24.6675 156.534375 64.8 37.7325 37.6003125 61.9996875 88.9340625 64.5328125 145.8675z m-557.0671875 0h-142.8v78.7996875l152.5340625 15.6C349.465625 751.7334375 485.86625 864 648.3996875 864c190.9340625 0 345.7340625-154.8 345.7340625-345.86625 0-4.0003125-0.1340625-8.000625-0.2671875-12.1340625H949.334375c-2.6671875-81.6-36.93375-155.199375-90.6665625-209.06625-56.266875-56.266875-133.8665625-91.066875-219.733125-91.066875-85.734375 0-163.4671875 34.8-219.6 91.066875-53.866875 53.866875-88.134375 127.46625-90.800625 209.06625h-25.7334375v0.1340625z m70.134375-349.2h177.7321875v-82.53375h199.3340625v82.53375h163.0659375L1023.066875-96h-728.934375l78.800625 252.93375z"  horiz-adv-x="1278" />

    
    <glyph glyph-name="tiaoyongshenqing" unicode="&#58894;" d="M142.859375 805.875v-843.75h574.8046875L881.140625 120.328125V805.875H142.859375z m52.73437499-791.015625V753.140625h632.8125v-580.078125H643.8359375v-158.203125H195.59374999z m500.97656251 0V120.328125h110.7421875L696.5703125 14.859375zM775.671875 700.40625001H248.328125v-263.67187501h527.34375V700.40625001z m-52.734375-210.93750002H301.0625V647.671875h421.875v-158.20312499zM248.328125 331.265625h527.34375v-52.73437501H248.328125z"  horiz-adv-x="1024" />

    
    <glyph glyph-name="kuaijiebiaoqian" unicode="&#58917;" d="M958.13020391 760.81229355c-2.52297949-83.06208721-20.43613301-162.90036738-50.4035209-240.27173437-35.79827344-92.56530937-88.19214521-173.97344355-161.63887764-241.28092618-5.97105088-5.49448857-7.82123643-11.29734052-7.03630899-19.00644433 2.5790458-24.9494625 4.5974294-49.898925 7.14844161-74.73625488 5.97105088-58.08459112-14.35294951-105.65676914-61.16823281-139.32452725-50.23532197-36.1907376-102.40492852-69.60619688-154.26617081-103.47018662-32.65856631-21.30515859-72.7739376-1.90625098-76.44627509 36.80746524a5768.25967354 5768.25967354 0 0 0-10.54044668 133.63380703c-1.54182041 22.28631768-0.92509278 22.51058291-22.53861562 25.34192578-57.32769727 7.56893847-102.23673047 34.78908164-133.01707852 84.15537802-15.86673721 25.42602568-23.71600635 53.54322891-26.4632502 83.14618711-0.84099287 8.83042734-4.40119776 11.07307617-12.75506191 11.52160577-46.42282002 2.5790458-92.78957461 5.29825693-139.10026201 8.77436103C71.35902617 329.01839268000003 51.81995234 369.69442704999994 72.48035058 403.58644951c14.52114756 23.82813808 29.93935518 47.12364756 44.93706505 70.67145499 16.11903516 25.34192578 32.15397041 50.79598418 48.32907187 76.10987724C195.37747842 596.7345354500001 238.07189551 621.76809786 292.68038164 622.24466016c31.31297753 0.22426523 62.6259542-5.27022334 93.91089902-8.63419571 5.91498457-0.61672852 10.11995068 0.16819893 14.156717 4.73759473 72.60573955 81.12780263 162.47987051 135.87645498 264.18397236 172.51572217A745.76466563 745.76466563 0 0 0 842.24135234 831.37161592c30.61214912 3.13970801 61.39249805 4.31709786 91.97661446-1.34558878 16.62363105-3.0836417 17.52069023-3.78446924 20.07170244-20.04366972 2.60707852-16.25920049 4.65349482-32.6025 3.84053467-49.17006387z m-175.1227998-204.7537916c0.61672852 54.74865234-44.71280068 101.84426719-98.62046016 102.74132637-55.95407578 0.92509278-104.47937842-39.77897432-105.79693448-103.35805488-1.09329082-53.01059941 46.8993832-101.00327344 100.47064483-101.39573672a102.8814917 102.8814917 0 0 1 103.94674981 102.01246523z m0 0M181.02452891 243.46135957c13.70818828-0.16819893 21.33319219-6.22334883 26.23898495-20.29596767 19.31480859-54.9729167 54.41225449-96.68617559 105.34840489-124.94354414 11.2412751-6.22334883 23.04321152-11.29734052 35.29367842-15.47427305 22.00598701-7.51287217 27.0239124-28.90212979 10.680612-45.41362911-24.16453594-24.38880029-48.58136894-48.49726992-72.74590487-72.97016924-7.98943448-8.04550078-16.79182911-11.80193643-28.03310333-7.68107021-11.40947315 4.26103154-16.93199443 12.7270292-17.49265751 24.55699834-0.39246328 7.48483857-0.19623164 14.99771074-0.36442969 22.51058291-0.30836425 13.82032002-0.44852959 13.93245263-13.14752608 9.69945381-27.13604502-8.94255996-54.30012276-18.10938516-81.40813417-27.05194512-8.04550078-2.66314482-16.06296885-3.78446924-23.8842044 0.64476123-11.43750674 6.55974668-15.78263731 18.16545146-11.18520879 32.49036739 9.02665987 27.89293887 18.50184844 55.61767793 27.72473994 83.45455048 4.00873359 12.08226797 3.75643565 12.33456592-9.30699053 12.50276484-7.84926914 0.11213261-15.72657099 0-23.57584013 0.4485296-11.40947315 0.56066221-19.59513925 6.02711719-23.82813896 16.90396172-4.12086621 10.56848027-1.51378769 19.67923916 6.2233497 27.47244199 25.20176045 25.34192578 50.54368623 50.68385156 75.85757929 75.9136456 5.04595898 5.01792539 11.01700987 7.84926914 17.60478927 7.23254063z m0 0"  horiz-adv-x="1024" />

    
    <glyph glyph-name="zaiban" unicode="&#58918;" d="M921.6 689.92c-15.36-2.7648-29.3376-9.8816-40.2432-20.7872l-419.1232-419.6352c-1.3312-2.5088-1.9968-3.328-2.2528-4.4032l-49.3056-180.7872a31.0784 31.0784 0 0 1 7.8848-29.9008 30.8224 30.8224 0 0 1 29.696-7.7824l179.4048 48.9984a7.2704 7.2704 0 0 1 6.2464 2.048L921.6 365.568V25.600000000000023c0-28.2624-22.9888-51.2-51.5584-51.2H205.1584A51.3024 51.3024 0 0 0 153.6 25.600000000000023V742.4c0 28.2624 22.9888 51.2 51.5584 51.2h664.8832C898.5088 793.6 921.6 770.816 921.6 742.4v-52.48zM307.2 588.8v-51.2h307.2V588.8H307.2z m0-153.6v-51.2h153.6V435.2H307.2z m619.9808 20.2752l-73.4208 74.6496 74.6496 69.8368c7.0144 7.0656 20.736 6.0416 28.8256-2.0992l43.0592-43.1616a23.552 23.552 0 0 0 7.0656-16.384 17.408 17.408 0 0 0-4.9152-12.3904l-75.264-70.4512z m-404.6848-245.8112L798.1056 486.4 870.4 412.8768l-273.8688-272.4864-124.3648-49.664 50.3296 118.9376z"  horiz-adv-x="1024" />

    
    <glyph glyph-name="chukujiaojie" unicode="&#58888;" d="M891.63476563 571.6640625L744.734375 723.2578125a50.66015625 50.66015625 0 0 1-36.38671875 15.40722656H315.828125A50.66015625 50.66015625 0 0 1 279.44140625 723.2578125L132.54101562 571.6640625a50.66015625 50.66015625 0 0 1-13.98339843-40.7109375l49.35058594-455.9765625a50.66015625 50.66015625 0 0 1 50.37011718-45.17578125h587.61035156a50.66015625 50.66015625 0 0 1 50.37011719 45.2109375l49.359375 455.9765625a50.66015625 50.66015625 0 0 1-13.98339844 40.67578125zM805.88867188 80.42578125H218.27832031L174.38574219 485.953125h675.40429687z m49.35937499 455.93261719H168.92773437L315.828125 675.60351563h392.51953125L855.24804688 536.40234375zM310.24707031 308.4140625h48.33984375a6.77636719 6.77636719 0 0 0 6.77636719-6.77636719V134.390625a6.77636719 6.77636719 0 0 1 6.77636719-6.77636719h51.53027343a6.77636719 6.77636719 0 0 1 6.77636719 6.77636719V301.65527344a6.77636719 6.77636719 0 0 0 6.77636719 6.77636718h48.33984375a6.67089844 6.67089844 0 0 1 5.5546875 2.89160157c7.60253906 11.30273438 6.85546875 27.44824219-2.3203125 37.79296875l-72.72070313 81.67675781a23.73046875 23.73046875 0 0 1-36.36035156 0l-72.72070312-81.67675781c-9.17578125-10.32714844-9.92285156-26.46386719-2.3203125-37.79296875a6.67089844 6.67089844 0 0 1 5.57226562-2.90917969zM650.36621094 189.4453125a15.16113281 15.16113281 0 0 1 23.19433593 0l46.38867188 52.1015625c5.85351563 6.58300781 6.328125 16.88378906 1.4765625 24.09082031a4.25390625 4.25390625 0 0 1-3.515625 1.84570313h-30.85839844a4.32421875 4.32421875 0 0 0-4.32421875 4.32421875V378.48925781a4.32421875 4.32421875 0 0 1-4.32421875 4.32421875h-32.87109375a4.32421875 4.32421875 0 0 1-4.32421875-4.32421875v-106.68164062a4.32421875 4.32421875 0 0 0-4.32421875-4.32421875H606.04296875a4.25390625 4.25390625 0 0 1-3.515625-1.84570313c-4.8515625-7.20703125-4.39453125-17.5078125 1.4765625-24.09082031z"  horiz-adv-x="1024" />

    
    <glyph glyph-name="taizhang" unicode="&#59207;" d="M599.15166687 803.05416656H248.51666656c-48.21666656 0-87.23083313-37.71-87.23083312-83.80999969l-0.42833344-670.48666687c0-46.08 39.01416656-83.81083313 87.23083313-83.81083313h526.38083343c48.195 0 87.65833312 37.73083313 87.65833313 83.81083313V551.62166625L599.15166687 803.05416656zM305.14916656 670.68583312c28.365-58.69666687 46.29166687-97.37666625 53.78333344-116.04083343h1.28916656c0.98083312 2.7 2.14750031 6.07916625 3.49999969 10.13083406 2.20999969 6.50666625 11.05083375 25.66249969 26.52333375 57.46749938l23.02333313 48.44166656h59.31L398.53333344 543.96250031h52.49416687v-38.12750062h-64.83500062V476.91666656h64.83500062v-38.49583312h-64.83500062v-52.86333375h-58.57249969v52.86333375H260.57499969V476.91666656h67.04583375v28.91833313H260.57499969v38.12750062h53.96833406L242.525 670.68583312h62.62416656z m472.74333375-612.16583343H242.52416656v83.33333344h535.36833375v-83.33333344z m0 152.49166687H242.52416656v83.33333344h535.36833375v-83.33333344zM555.32166687 509.71666688V740.19583313L796.38416656 509.71666688H555.32166687z"  horiz-adv-x="1024" />

    
    <glyph glyph-name="rukudengji" unicode="&#58924;" d="M913.03313802 208.51054686999998L785.14436849 80.62177734 695.60843099-8.917675779999968h-85.13876954a26.81894531 26.81894531 0 0 0-26.62470703 26.63085937v85.34179688l89.43486328 89.43310547 127.88964844 127.88964844a43.9453125 43.9453125 0 0 0 62.14833985 0l49.71533203-49.71533204a43.9453125 43.9453125 0 0 0 0-62.15185546z m-55.93271485 43.50585938l-12.42949218 12.42949219a17.578125 17.578125 0 0 1-24.85986329 0l-183.23173828-183.234375v-37.39482422h37.18564453l183.33984375 183.33984375a17.578125 17.578125 0 0 1-0.00439453 24.85810547z m-30.80302734 132.02490234a26.3671875 26.3671875 0 0 0-26.3671875 26.3671875v296.19140625a17.578125 17.578125 0 0 1-17.578125 17.578125h-571.2890625a17.578125 17.578125 0 0 1-17.578125-17.578125v-645.1171875a17.578125 17.578125 0 0 1 17.578125-17.578125h268.9453125a26.3671875 26.3671875 0 0 0 0-52.734375h-295.3125a43.9453125 43.9453125 0 0 0-43.9453125 43.9453125v697.8515625a43.9453125 43.9453125 0 0 0 43.9453125 43.9453125h624.0234375a43.9453125 43.9453125 0 0 0 43.9453125-43.9453125v-322.55859375a26.3671875 26.3671875 0 0 0-26.3671875-26.3671875z m-552.83203125 127.45986328a26.34873047 26.34873047 0 0 0 26.34873047 26.34873047h393.78691406a26.34873047 26.34873047 0 1 0 0-52.69658203H299.81409505a26.34873047 26.34873047 0 0 0-26.34873047 26.34785156z m320.81923828-153.82705078H299.81409505a26.34873047 26.34873047 0 0 0-26.34873047 26.34873047v0.03691406a26.34873047 26.34873047 0 0 0 26.34873047 26.34873047h294.47050781a26.34873047 26.34873047 0 0 0 26.34873047-26.34873047v-0.03691406a26.34873047 26.34873047 0 0 0-26.34873047-26.34873047z m-294.47050781-127.44140625a26.34873047 26.34873047 0 1 0 0 52.69658203h194.43691406a26.34873047 26.34873047 0 1 0 0-52.69658203H299.81409505z"  horiz-adv-x="1024" />

    
    <glyph glyph-name="kaishi" unicode="&#58967;" d="M420.00000031 620.80000031l282.39999938-214.8a30 30 0 0 0 0-44.00000062L420.00000031 147.19999969000003c-12.40000031-9.19999969-28.00000031 2.80000031-28.00000031 22.00000031V598.8c0 19.2 15.6 31.60000031 28.00000031 22.00000031zM512 823.99999969A439.99999969 439.99999969 0 0 1 72.00000031 384 439.99999969 439.99999969 0 1 1 512 823.99999969z m0-823.59999938A383.59999969 383.59999969 0 0 0 128.40000031 384a383.59999969 383.59999969 0 0 0 767.19999938 0A383.59999969 383.59999969 0 0 0 512 0.4000003099999958z"  horiz-adv-x="1024" />

    
    <glyph glyph-name="shousuo" unicode="&#59088;" d="M151.32000031 262.51999968999996h188.79999938l-207.48-207.19999969a39.31999969 39.31999969 0 0 1 55.60000031-55.56l210.67999969 210.52000031v-187.00000031a39.31999969 39.31999969 0 0 1 78.68000062 0v278.59999969a39.31999969 39.31999969 0 0 1-39.36 39.32000062H151.32000031a39.31999969 39.31999969 0 1 1 0-78.68000062z m434.4 164.28h286.95999938a39.31999969 39.31999969 0 1 1 0 78.6h-188.71999969l207.48 207.24a39.19999969 39.19999969 0 0 1-27.79999969 67.08 39.12 39.12 0 0 1-27.80000062-11.52l-210.79999969-210.48V744.72a39.31999969 39.31999969 0 0 1-78.64000031 0v-278.59999969c0-21.72 17.59999969-39.31999969 39.36-39.32000062z"  horiz-adv-x="1024" />

    
    <glyph glyph-name="fenxi" unicode="&#58995;" d="M335.50463867-36.57869466a24.81811523 24.81811523 0 0 0-0.01977539 49.62963867h353.00390625a24.81811523 24.81811523 0 0 0 0-49.62963867H335.50463867zM809.79101563 761.912028H214.20898437c-54.82397461 0-99.26586914-44.44189453-99.26586914-99.26586914v-458.35400391c0-54.82397461 44.44189453-99.26586914 99.26586915-99.26586914h595.58862304c54.82397461 0 99.26586914 44.44189453 99.26586914 99.26586914V662.64615886c-0.0065918 54.82397461-44.44848633 99.26586914-99.27246093 99.26586914z m-36.22851563-202.90209961L582.18286133 333.88028971999995c-1.23925781-1.48974609-1.23925781-1.48974609-2.58398438-2.78173828a34.75195313 34.75195313 0 0 0-49.11547851 1.36450195l-0.01977539 0.01977539-108.05273438 114.40722656-136.38427734-123.72802734a24.81152344 24.81152344 0 0 0-33.34790039 36.72949219l147.20800781 133.60913085a34.73876953 34.73876953 0 0 0 48.64086914-1.83911132l106.60913086-112.96362305 180.60864258 212.47338867a24.82470703 24.82470703 0 0 0 37.81713867-32.16137695z"  horiz-adv-x="1024" />

    
    <glyph glyph-name="shenqing" unicode="&#59025;" d="M728.30310526 469.72173527v86.92177225H295.69560019v-86.92177225h432.60621053z m0-171.84218834v84.91912155H295.69560019v-84.91912155h432.60621053z m-129.38133301-173.84354448v86.92177225H295.69689474v-86.92177225h303.22487751zM512 728.48310676c-12.01719877 0-22.43046463-4.00530142-30.44365653-12.01590423s-12.01719877-18.02644543-12.01719878-30.44365654c0-12.01719877 4.00530142-22.43046463 12.01719878-31.24497572s18.0251509-13.21723575 30.44365653-13.21723575c12.01719877 0 22.43046463 4.40531374 30.44365653 13.21723575 8.01189737 8.81192202 12.01719877 19.22777695 12.01719878 31.24497572s-4.00530142 22.43046463-12.01719878 30.44365654-18.42645776 12.01590423-30.44365653 12.01590423z m301.22093227 0c22.83306604 0 43.2621745-8.81062747 60.48471166-26.43447151 17.6264331-17.6264331 26.43576605-37.65294017 26.43576604-60.48600618v-602.44315909c0-22.8317715-8.81062747-43.26087997-26.4344715-60.48471167-17.6264331-17.6264331-37.65294017-26.43576605-60.4860062-26.43576604H210.77777319c-22.8317715 0-43.26087997 8.81192202-60.48471166 26.43447152-17.6264331 17.6264331-26.43576605 37.65294017-26.43576604 60.48600619V641.96264139c0 22.8317715 8.81192202 43.26087997 26.4344715 60.48471166 17.6264331 17.6264331 37.65294017 26.43576605 60.4860062 26.43576604h179.85149662c9.61324121 25.63574139 24.83442221 46.46615671 46.46486219 62.48736237S483.56028871 815.80618587 512 815.80618587s53.27542803-8.0131919 74.905868-24.43440987c21.62914544-16.02120565 37.2516333-37.2516333 46.46486219-62.48736237l179.85149662-0.40001233z"  horiz-adv-x="1024" />

    
    <glyph glyph-name="renlianshibie" unicode="&#60129;" d="M677.70089876 328.76636665c-5.52336372-93.89717553-77.32708566-165.70089876-165.70089876-165.70089877s-160.17753504 71.80372323-165.70089876 165.70089877h331.40179752z m-331.40179752 5.52336372v99.42053926-99.42053926zM125.36456912 494.46726541V770.6354308800001h276.16816547v-110.4672667H235.83183582v-165.70089877H125.36456912z m0-220.93453082h110.4672667v-165.70089877h165.70089877v-110.4672667H125.36456912v276.16816547z m773.27086176 220.93453082h-110.4672667V660.16816418h-165.70089877V770.6354308800001h276.16816547v-276.16816547z m0-220.93453082v-276.16816547h-276.16816547v110.4672667h165.70089877v165.70089877h110.4672667z m-441.86906423 276.16816417v-110.46726541H346.29910124V549.70089876h110.46726541z m220.93453211 0v-110.46726541h-110.46726541V549.70089876h110.46726541z"  horiz-adv-x="1024" />

    
    <glyph glyph-name="qianzi" unicode="&#58903;" d="M803.2945938-9.190383910000037H222.51300049c-53.46307754 0-96.79976463 43.36681367-96.79976463 96.86542511V668.83514785c0 53.49861145 43.97706985 101.45084381 97.43396758 101.45084383h389.73355293v-48.72007371H223.14797593c-26.72844887 0-49.03138161-25.98069191-49.03138162-52.73077012v-581.16010666c0-26.73849106 21.6679573-48.42730522 48.39640618-48.42730521h580.78159331c26.72922134 0 53.17108154 22.2619915 53.17108155 49.0020275V477.97790908H905.19038391V88.24976347999996c0-53.49938393-48.43811989-97.4401474-101.8957901-97.44014739zM866.11699295 646.34836579L780.56061936 731.96035766c-18.90172005 18.91176223-49.55512046 18.91176223-68.45684052 0L335.66376877 355.2638855c-7.074337-7.07974433-10.61845779-15.9469986-12.39129067-25.085392L218.52238845 118.12373543000001c-8.79000664-23.86101723 10.31178474-45.25165558 34.16739465-34.18902398l211.89640045 104.81652261c9.13762092 1.78287505 17.99946785 5.32699585 25.07921219 12.39669799l376.45159721 376.70651436c18.89167786 18.91330718 18.89167786 49.57597732 0 68.49391937zM281.95427131 130.30568503999996c-11.93012238-5.533247-22.62119293 5.94111443-17.08408354 17.09721566l79.20352935 130.94707488 68.73415947-68.76892089-130.85360528-79.27536965z m173.49351883 105.0922966c-32.08788872 32.10642815-76.46896362 76.52921677-85.56100845 85.61199189l273.17539215 273.36001396L729.22262382 509.35743713 455.44779014 235.39798164z m359.34124947 359.58148957l-51.34726525-51.37275696-84.33663368 86.84563636 50.11748315 50.13370514c9.4566536 9.46592332 24.76172447 9.46592332 34.21915053 0l51.34726526-51.36889457c9.43656922-9.45510864 9.43656922-24.78103638 0-34.23768997z"  horiz-adv-x="1024" />

    
    <glyph glyph-name="tuihui" unicode="&#59519;" d="M468.8 19.200000000000045c14.4 0 24-9.6 24-24s-9.6-24-24-24H161.6c-33.6 0-57.6 24-57.6 57.6v720c0 33.6 24 57.6 57.6 57.6H704c33.6 0 57.6-24 57.6-57.6V384c0-14.4-9.6-24-24-24s-24 9.6-24 24V744c0 4.8-4.8 4.8-4.8 4.8H161.6c-4.8 0-4.8-4.8-4.8-4.8v-720c0-4.8 4.8-4.8 4.8-4.8h307.2zM502.4 134.39999999999998c0 14.4 9.6 24 24 24h384c14.4 0 24-9.6 24-24s-9.6-24-24-24h-384c-14.4 0-24 9.6-24 24zM507.2 115.20000000000005c-9.6 9.6-9.6 24 0 33.6l100.8 100.8c9.6 9.6 24 9.6 33.6 0 9.6-9.6 9.6-24 0-33.6l-100.8-100.8c-4.8-9.6-24-9.6-33.6 0zM507.2 148.79999999999995c9.6 9.6 24 9.6 33.6 0l100.8-100.8c9.6-9.6 9.6-24 0-33.6-9.6-9.6-24-9.6-33.6 0l-100.8 100.8c-9.6 9.6-9.6 24 0 33.6zM492.8 604.8c0-14.4-9.6-24-24-24H238.4c-14.4 0-24 9.6-24 24s9.6 24 24 24H464c14.4 0 28.8-9.6 28.8-24zM238.4 475.2h364.8c14.4 0 24-9.6 24-24s-9.6-24-24-24H243.2c-19.2-4.8-28.8 4.8-28.8 24 0 14.4 9.6 24 24 24zM910.4 110.39999999999998c-14.4 0-28.8 14.4-28.8 28.8v230.4c0 14.4 14.4 28.8 28.8 28.8s28.8-14.4 28.8-28.8v-230.4c-4.8-19.2-14.4-28.8-28.8-28.8z"  horiz-adv-x="1024" />

    
    <glyph glyph-name="huaban" unicode="&#58954;" d="M670.203125 502.65234375h79.1015625L907.5078125 344.44921875v-79.1015625h-237.3046875z m0 0M867.95703125 384v-237.3046875a39.55078125 39.55078125 0 0 0-39.55078126-39.55078125h-41.74804652a98.43749991 98.43749991 0 0 0-193.35937569 0H391.5898434a98.87695313 98.87695313 0 0 0-193.79882811 0H156.04296875a39.55078125 39.55078125 0 0 0-39.55078125 39.55078125V700.40625001A39.55078125 39.55078125 0 0 0 156.04296875 739.95703125H512a39.55078125 39.55078125 0 0 0 39.55078125-39.55078126v-158.20312499h157.76367178a19.33593742 19.33593742 0 0 0 14.06250044-5.71289097L863.56249991 397.62304722a18.457031 18.457031 0 0 0 4.39453134-13.62304722z m-571.28906286-315.96679679a59.32617188 59.32617188 0 1 1-61.52343714 58.88671867 59.32617188 59.32617188 0 0 1 59.32617188-59.32617187zM512 502.65234375V700.40625001H156.04296875v-553.71093751h43.94531258a98.87695313 98.87695313 0 0 0 193.79882813 0H512z m177.97851563-435.05859376a59.32617188 59.32617188 0 1 1-59.32617188 59.32617189 59.32617188 59.32617188 0 0 1 59.32617187-59.32617187z m-59.32617188 257.08007814v175.78125034H551.55078125v-355.95703125h41.74804653a98.43749991 98.43749991 0 0 0 193.35937569 0h41.74804652V304.8984375h-175.78125034a19.33593742 19.33593742 0 0 0-19.77539062 19.77539063z m71.19140624 175.78125034h-31.64062499V344.44921875h158.20312499v31.640625z m0 0M299.30468768 281.60742196a21.09375025 21.09375025 0 0 0-12.30468759 3.51562492 21.9726559 21.9726559 0 0 0-6.15234419 30.32226537L349.40234367 421.79296841H282.60546875a21.9726559 21.9726559 0 0 0-19.33593742 11.42578194 21.53320347 21.53320347 0 0 0 0 22.85156233l87.89062517 126.56249999a21.9726559 21.9726559 0 0 0 30.32226537 5.27343698 21.53320347 21.53320347 0 0 0 5.71289098-30.32226536L324.35351529 465.738281h65.47851604a21.9726559 21.9726559 0 0 0 18.45703098-34.2773435L317.76171867 291.71484350000003a22.41210912 22.41210912 0 0 0-18.45703099-10.10742154z"  horiz-adv-x="1024" />

    
    <glyph glyph-name="baoguanyuan" unicode="&#58883;" d="M837.77448088 512.26207617l63.32270334-45.66432925 21.3418883-15.38078138c12.40022708-8.9416604 30.59285147-4.21776453 40.63113145 10.54441132 10.0663981 14.76217584 8.15434443 33.96706292-4.24588349 42.90872333L555.91534226 795.16159726a34.416958 34.416958 0 0 1-10.43193795 7.39514658c-11.92221387 7.00148858-28.17466643 2.58689548-37.8755247-10.46005527L108.83231071 503.68595563c-12.37210896-8.9416604-14.28416262-28.17466643-4.24588348-42.9368423 10.03827915-14.76217584 28.20278457-19.48607172 40.57489434-10.5444113l27.80912659 20.10467724v-475.82006644c0-17.91143977 14.17168845-32.4205491 31.66135208-32.42054992 17.48966364 0 31.66135207 14.5372283 31.66135209 32.42054992v521.59686989l297.63357797 215.24657903 303.84775058-219.07068558zM394.59991108 305.08548633H326.07529784c-26.26261359 0-31.68947021-5.56744895-31.68947022-32.44866724v-71.13962768c0-26.88121912 5.42685663-32.44866806 31.68947021-32.44866724h68.49649511c26.23449463 0 31.68947021 5.56744895 31.68947023 32.44866724v71.13962768c0.02811814 26.88121912-5.42685663 32.44866806-31.66135209 32.44866724zM394.59991108 130.77934147999997H326.07529784c-26.26261359 0-31.68947021-5.56744895-31.68947022-32.44866805v-71.13962687c0-26.88121912 5.42685663-32.44866806 31.68947021-32.44866805h68.49649511c26.23449463 0 31.68947021 5.56744895 31.68947023 32.44866805v71.13962687c0.02811814 26.88121912-5.42685663 32.44866806-31.66135209 32.44866805zM394.59991108 479.1948034H326.07529784c-26.26261359 0-31.68947021-5.56744895-31.68947022-32.44866805v-71.13962687c0-26.88121912 5.42685663-32.44866806 31.68947021-32.44866805h68.49649511c26.23449463 0 31.68947021 5.56744895 31.68947023 32.44866805v71.13962687c0.02811814 26.88121912-5.42685663 32.44866806-31.66135209 32.44866805zM837.8588361 166.71469435999995c2.10888227 1.88393472 4.41459311 3.31797437 6.46723911 5.37061954 27.30299524 27.35923233 41.16538091 60.76392683 41.16538092 99.39864936 0 38.66284067-13.86238568 72.09565329-41.16538092 99.39864853-27.35923233 27.33111337-60.82016309 41.19349905-99.45488561 41.19349987s-72.09565329-13.86238568-99.42676749-41.19349987c-27.33111337-27.30299524-41.16538091-60.73580786-41.16538093-99.39864853 0-38.63472253 13.86238568-72.06753516 41.16538092-99.39864936 2.05264517-2.05264517 4.35835684-3.45856668 6.46723911-5.37061954-77.71933933-35.45733967-131.9879089-113.73904824-131.98790891-204.58969436h56.23685954c0 93.0438836 75.66669415 168.71057776 168.71057776 168.71057776s168.71057776-75.66669415 168.71057775-168.71057776h56.23685953c0 90.85064612-54.24045062 169.13235471-131.95979078 204.58969436z m-33.32033926 45.13007978c-16.64611057-16.64611057-36.16030042-24.71609976-59.66730724-24.71609977s-43.02119751 8.06998919-59.63918912 24.71609977-24.71609976 36.13218228-24.71609977 59.63918912c0 23.53512579 8.06998919 43.02119751 24.6879808 59.63918911 16.6742287 16.64611057 36.16030042 24.71609976 59.66730809 24.71609976s43.02119751-8.06998919 59.66730724-24.71609976c16.6179916-16.6179916 24.68798164-36.10406332 24.68798163-59.63918911 0-23.50700684-8.06998919-42.99307855-24.68798163-59.63918912z"  horiz-adv-x="1094" />

    
    <glyph glyph-name="anjiandengji" unicode="&#58922;" d="M912.00000031 612l-40.00000031 24c-16.00000031 12-40.00000031 4.00000031-52.00000031-12l-24-36 104.00000062-64.00000031 24 36c12 16.00000031 7.99999969 40.00000031-12 52.00000031zM712.77212375 218.98045125l-105.17631 65.68062 173.735835 278.20830281 105.17631-65.68062zM591.99999969 139.99999968999998l108 56.00000062-103.99999969 63.99999938zM200 552H128c-19.99999969 0-31.99999969 16.00000031-31.99999969 31.99999969 0 19.99999969 16.00000031 31.99999969 31.99999969 32.00000062h72c16.00000031 4.00000031 31.99999969-12 31.99999969-28.00000031 0-19.99999969-16.00000031-36-31.99999969-36zM200 352.00000031H128c-19.99999969 0-31.99999969 16.00000031-31.99999969 31.99999969 0 19.99999969 16.00000031 31.99999969 31.99999969 31.99999969h72c16.00000031 0 31.99999969-12 31.99999969-31.99999969s-16.00000031-31.99999969-31.99999969-31.99999969zM200 148.00000031000002H128c-19.99999969 0-31.99999969 16.00000031-31.99999969 31.99999969 0 19.99999969 16.00000031 31.99999969 31.99999969 31.99999969h72c19.99999969 0 31.99999969-16.00000031 31.99999969-31.99999969s-16.00000031-31.99999969-31.99999969-31.99999969zM780.00000031 628.00000031V712.00000031c0 19.99999969-16.00000031 31.99999969-32.00000062 31.99999969h-559.99999969c-19.99999969 0-36-16.00000031-36-31.99999969v-56.00000062h48c36 0 67.99999969-31.99999969 67.99999969-67.99999969 0-36-31.99999969-67.99999969-67.99999969-67.99999969H152v-68.00000062h48c36 0 67.99999969-31.99999969 67.99999969-67.99999969 0-36-31.99999969-67.99999969-67.99999969-67.99999969H152v-68.00000062h48c36 0 67.99999969-31.99999969 67.99999969-67.99999969 0-36-31.99999969-67.99999969-67.99999969-67.99999969H152v-56.00000062c0-16.00000031 16.00000031-31.99999969 31.99999969-31.99999969h560.00000062c19.99999969 0 31.99999969 16.00000031 31.99999969 31.99999969v196.00000031l-48-79.99999969-172.00000031-92.00000062 4.00000031 196.00000031 220.00000031 352.00000031z m-444-40.00000031c0 19.99999969 16.00000031 31.99999969 31.99999969 31.99999969h228c19.99999969 0 31.99999969-16.00000031 31.99999969-31.99999969 0-19.99999969-16.00000031-31.99999969-31.99999969-31.99999969H368c-16.00000031-4.00000031-31.99999969 12-31.99999969 31.99999969z m204-172.00000031H368c-19.99999969 0-31.99999969 16.00000031-31.99999969 32.00000062 0 19.99999969 16.00000031 31.99999969 31.99999969 31.99999969h168c19.99999969 0 31.99999969-16.00000031 31.99999969-31.99999969 4.00000031-16.00000031-12-31.99999969-27.99999938-32.00000062z"  horiz-adv-x="1024" />

    
    <glyph glyph-name="baojing" unicode="&#58908;" d="M742.41243932 553.9105757899999l3.88361557-4.31081244 85.20650866 89.75033798a32.35051179 32.35051179 0 0 1 8.15559112 25.63185778 64.6233509 64.6233509 0 0 1-8.15559112 25.70953046 35.57391133 35.57391133 0 0 1-44.66156999-4.34964936l-85.12883712-89.5173211 8.03908266-4.27197667a149.01430045 149.01430045 0 0 1 32.505856-38.83614777zM218.93999843 396.00279666H101.34414222a34.2146469 34.2146469 0 0 1 0-68.35161998h117.59585621v68.35161998zM547.57148444 793.41310066a34.05930155 34.05930155 0 0 1-9.32067555 24.117248 31.49611577 31.49611577 0 0 1-23.30168889 9.86438201 36.00110933 36.00110933 0 0 1-32.62236445-33.98163001v-132.66428131h65.24472889V793.41310066z m-259.65848689-243.58032043l4.07779555 4.27197555a159.22820779 159.22820779 0 0 0 36.50598002 38.8361489l8.1167542 4.27197553-89.32313998 93.82813469a35.57391133 35.57391133 0 0 1-48.70052978 0 44.31204466 44.31204466 0 0 1 0-51.30255246z m641.14596977-153.82998357h-117.71236465v-68.35161998h117.71236465a34.2146469 34.2146469 0 0 1 0 68.35161998z m-337.02009287-76.9344091H519.22109667l40.58377443 42.71976334a32.38934755 32.38934755 0 0 1 8.15559112 25.63185778 62.72037888 62.72037888 0 0 1-8.15559112 25.63185777 30.68055666 30.68055666 0 0 1-44.58389845 0l-97.40105955-98.25545557a34.95253333 34.95253333 0 0 1 0-47.03057465 48.04031488 48.04031488 0 0 1 36.50598002-12.81592888h69.01183488L466.55927979 186.48177778000002a32.54469177 32.54469177 0 0 1-8.11675535-25.67069355 62.37085355 62.37085355 0 0 1 8.11675535-25.63185778 28.23387933 28.23387933 0 0 1 24.27259221-8.77697024 56.11823445 56.11823445 0 0 1 24.38910065 8.58278912l97.59524068 102.52743112a56.73961245 56.73961245 0 0 1 16.23350955 42.71976334 35.37973134 35.37973134 0 0 1-36.9331769 38.60313088z m235.38589355-277.71729578h-52.62298112v311.93194267a260.20219221 260.20219221 0 1 1-519.31697266 0v-311.93194267h-52.8171611a34.2146469 34.2146469 0 0 1 0-68.35161999h624.951296a34.2146469 34.2146469 0 0 1 0 68.35161999z m-117.71236466 0H320.38001777v290.57206043a227.96819001 227.96819001 0 0 0 56.8561209 149.5580069 180.62692466 180.62692466 0 0 0 275.73665222 0 219.8125989 219.8125989 0 0 0 56.77844821-149.5580069z m0 0"  horiz-adv-x="1024" />

    
    <glyph glyph-name="chepaihao" unicode="&#58881;" d="M825.67256 252.31374221h37.92213334v-41.08174221h-37.92213334z m-546.70222222 369.73568001H926.79711111c9.47996445 0 22.12067555 12.64071111 22.12067556 22.12067556s-12.64071111 22.12067555-22.12067556 22.12067555H278.9692c-9.47996445 0-22.12067555-12.64071111-22.12067555-22.12067555 3.15960889-12.64071111 12.64071111-22.12067555 22.12067556-22.12067556z m88.48384001 85.32309333h477.17944888c9.47996445 0 22.12067555 12.64071111 22.12067556 22.12067555-3.15960889 9.48110222-9.47996445 22.12067555-18.96106667 22.12067557H361.13382222c-9.47996445 0-15.80032-12.64071111-15.80032-22.12067557s9.47996445-22.12067555 22.12067557-22.12067555z m334.97315554-499.30012444c28.44103111 0 53.72245333 9.47996445 69.52277334 28.44103111 18.96106667 18.95992889 25.28142222 44.24135111 25.28142222 79.00273777s-9.47996445 60.04280889-25.28142222 79.00387556c-18.95992889 18.95992889-41.08174222 28.44103111-72.68238221 28.44103112-15.80032 0-31.60177778-3.16074667-44.2424889-9.48110222-9.47996445-3.15960889-18.95992889-9.47996445-25.28142223-18.9599289-9.47996445-9.48110222-12.63957333-18.96106667-18.95992888-28.4410311-6.32035555-15.80145778-9.47996445-31.60177778-9.47996445-53.72245334 0-34.76138667 9.47996445-60.04280889 25.28142223-79.00387557 22.12067555-15.80032 44.24135111-25.28142222 75.8419911-25.28142221z m-12.64071111 173.80693334c50.56284445 0 66.36316445-18.96106667 66.36316446-63.20355556 0-47.40096-15.80032-66.36202667-66.36202667-66.36202668-31.60177778 0-44.24248889 18.96106667-44.24248889 66.36316446 0 37.92213333 25.28142222 63.20241778 44.24248889 63.20241778z m-237.0093511-44.2424889l85.3242311-129.56444444h44.24135111V426.12067554h-44.24135111v-129.56558222L452.77613334 426.12067554h-44.24135112v-218.04828443h44.24135112zM971.03846222 577.80693333h-733.14986667c-22.12067555 0-44.24135111-15.80032-44.24135109-34.76138666V94.30826665999996c0-22.12067555 15.80032-37.92213333 37.92213332-37.92213334h745.79057777c22.11953778 0 37.92099555 15.80145778 37.92099556 37.92213334v448.73955555c0 18.95992889-22.12181333 34.76024889-44.24248889 34.7602489z m0-477.17944888h-733.14986667V533.56558222h736.31061335v-432.93809777z"  horiz-adv-x="1210" />

    
    <glyph glyph-name="paidanshenqing" unicode="&#59032;" d="M470.05208333 14.859375c15.8203125 0 26.3671875-10.546875 26.3671875-26.3671875s-10.546875-26.3671875-26.3671875-26.3671875h-237.3046875C172.10286458-37.875 124.64192708 9.5859375 124.64192708 67.59374998999999V700.40625001c0 58.0078125 50.09765625 105.46875001 108.10546875 105.46874999h522.0703125c60.64453125 0 108.10546875-47.4609375 108.10546875-105.46875001v-266.30859374c0-15.8203125-10.546875-26.3671875-26.3671875-26.3671875s-26.3671875 10.546875-26.3671875 26.3671875V700.40625001c0 29.00390625-23.73046875 52.734375-55.37109375 52.73437499H232.74739583c-31.640625 0-55.37109375-23.73046875-55.37109375-52.73437501v-632.8125c0-29.00390625 23.73046875-52.734375 55.37109375-52.73437499h237.3046875zM282.84505207 621.3046875h395.50781251c15.8203125 0 26.3671875-10.546875 26.36718749-26.3671875s-10.546875-26.3671875-26.36718749-26.3671875h-395.50781251c-15.8203125 0-26.3671875 10.546875-26.36718749 26.3671875s10.546875 26.3671875 26.36718749 26.3671875z m0-184.5703125h395.50781251c15.8203125 0 26.3671875-10.546875 26.36718749-26.3671875s-10.546875-26.3671875-26.36718749-26.3671875h-395.50781251c-15.8203125 0-26.3671875 10.546875-26.36718749 26.3671875s10.546875 26.3671875 26.36718749 26.3671875z m0-184.5703125h210.9375c15.8203125 0 26.3671875-10.546875 26.36718751-26.3671875s-10.546875-26.3671875-26.36718751-26.3671875h-210.9375c-15.8203125 0-26.3671875 10.546875-26.36718749 26.3671875s10.546875 26.3671875 26.36718749 26.3671875z m651.26953126-108.10546875l-105.46875-108.10546875c-5.2734375-5.2734375-10.546875-2.63671875-10.546875 5.2734375v63.28125h-158.203125c-5.2734375 0-7.91015625 2.63671875-7.91015625 7.91015625v65.91796875c0 5.2734375 2.63671875 7.91015625 7.91015625 7.91015625h158.203125v63.28125c0 5.2734375 7.91015625 7.91015625 10.546875 5.2734375l105.46875-97.55859375c2.63671875-5.2734375 2.63671875-10.546875 0-13.18359375z"  horiz-adv-x="1024" />

    
    <glyph glyph-name="danzi" unicode="&#59047;" d="M851.93993444 384a24.27259221 24.27259221 0 0 1 24.27259335 24.27259221V626.33756445C876.21252779 680.07708445 833.88112555 723.81629667 781.74359666 723.81629667h-110.39175111A145.97537223 145.97537223 0 0 1 534.35733334 820.90666667a146.21809778 146.21809778 0 0 1-136.80033224-97.09037H291.04886557c-52.08898333 0-94.46892999-43.73921223-94.46893113-97.47873222v-581.76549888c0-53.73952 42.37994667-97.47873223 94.46893113-97.47873224h490.69473109c52.08898333 0 94.46892999 43.73921223 94.46893113 97.47873224V262.63703666000004a24.27259221 24.27259221 0 0 1-48.54518557 0v-218.06497109c0-26.99112334-20.5831589-48.93354667-45.92374556-48.93354667H291.04886557c-25.34058667 0-45.92374557 21.94242333-45.92374557 48.93354667V626.33756445c0 26.99112334 20.5831589 48.93354667 45.92374557 48.93354666H412.99437a23.88423111 23.88423111 0 0 1 14.61210112 5.38851556 23.88423111 23.88423111 0 0 1 11.99066112 15.68009443A97.62436779 97.62436779 0 0 0 534.35733334 772.3614811c46.02083555 0 86.02206777-32.67091001 95.19710776-77.67229553a24.27259221 24.27259221 0 0 1 23.78714112-19.41807446c0.97090333 0 1.94180779 0.19418112 2.91271112 0.29127111 0.53399666 0 0.97090333-0.29127111 1.50490112-0.29127111h123.9844022c25.34058667 0 45.92374557-21.94242333 45.92374556-48.93354666V408.27259221a24.27259221 24.27259221 0 0 1 24.27259222-24.27259221M415.03326777 456.81777778h242.72592669a24.27259221 24.27259221 0 0 1 0 48.54518556h-242.72592669a24.27259221 24.27259221 0 0 1 0-48.54518556M415.03326777 311.18222221999997h242.72592669a24.27259221 24.27259221 0 0 1 0 48.54518557h-242.72592669a24.27259221 24.27259221 0 0 1 0-48.54518557M417.07216555 165.54666667000004h242.72592669a24.27259221 24.27259221 0 0 1 0 48.54518556h-242.72592669a24.27259221 24.27259221 0 0 1 0-48.54518556"  horiz-adv-x="1066" />

    
    <glyph glyph-name="cangku" unicode="&#58880;" d="M294.2 477.15h91.35v-105.3H294.2zM294.2 323.25h91.35v-105.3H294.2zM294.2 170.25h91.35v-105.3H294.2zM470.6 477.15h91.35v-105.3H470.6zM470.6 323.25h91.35v-105.3H470.6zM470.6 170.25h91.35v-105.3H470.6zM643.85 477.15h91.35v-105.3h-91.35zM643.85 323.25h91.35v-105.3h-91.35zM643.85 170.25h91.35v-105.3h-91.35zM879.2 543.3v0.9h-1.35L527.75 807.9l-9 13.95-454.5-342 28.8-44.55 60.3 45.45v-533.7h725.85V477.15l55.35-41.85 28.8 44.55-84.15 63.45z m-49.95-542.25h-625.5v517.5l310.05 233.1 315-237.15v-513.45z"  horiz-adv-x="1025" />

    
    <glyph glyph-name="chaxun" unicode="&#58956;" d="M701.3993759 21.96337921999998a196.24460229 196.24460229 0 1 0 193.66653076 196.24460228 194.95556653 194.95556653 0 0 0-193.66653076-196.24460228z m0 344.26148289a148.06132993 148.06132993 0 1 1 146.06110191-148.01688061 147.03899084 147.03899084 0 0 1-146.06110191 148.01688062z m210.7351442-401.55690508a15.55732947 15.55732947 0 0 0-16.93526468 0.62229282l-92.27719007 93.56622582a38.40437961 38.40437961 0 0 0 10.40118558 34.67062107 15.95737573 15.95737573 0 0 0 22.80260083 0l92.27719006-93.34397846a16.35742117 16.35742117 0 0 0 0-22.89149945v-0.2222482a101.30044126 101.30044126 0 0 0-16.13517379-12.26806567z m-432.58266624 249.49511911c0 119.48029238 88.14338526 226.02577615 196.64464775 226.02577615a172.99750672 172.99750672 0 0 0 107.12332809-18.57989657V607.58572037H565.87280916a113.52405762 113.52405762 0 0 0-107.65672146 118.59130206V805.875H240.81351729A113.56850693 113.56850693 0 0 1 133.156795 687.28369793v-542.5063124a113.52405762 113.52405762 0 0 1 107.65672229-118.59130206h337.81630243a221.35857714 221.35857714 0 0 0-99.07796586 188.02144197z m109.87919771 411.69139398h195.84455685L483.19671461 805.875v-72.40825772a106.67883252 106.67883252 0 0 1 106.10098819-107.61227216z"  horiz-adv-x="1024" />

    
    <glyph glyph-name="daiban" unicode="&#58957;" d="M869.9757472 251.84727751000003c-31.52121707 22.51667733-72.03631893 36.028816-112.57273173 36.028816-112.5727328 0-202.6287872-90.0560544-202.6287872-202.6287872 0-40.52575787 13.5121376-81.05151467 36.028816-112.5727328H154.0242528c-27.02427627 0-45.03335573 18.01973547-45.03335573 45.03335574V783.18972231c0 27.02427627 18.00907947 45.03335573 45.03335573 45.03335467H829.4499904c27.0136192 0 45.02269867-18.00907947 45.02269867-45.03335467v-531.3317888h-4.49694187z m-157.59543147 351.23033494c13.5121376 0 22.51667733 9.00453973 22.5166784 22.51667733s-9.00453973 22.51667733-22.5166784 22.5166784H262.08938667c-13.5014816 0-22.51667733-9.00453973-22.51667734-22.5166784 0-13.5014816 9.00453973-22.51667733 22.51667734-22.51667733h450.29092906z m0-225.14546454c13.5121376 0 22.51667733 9.00453973 22.5166784 22.51667734s-9.00453973 22.51667733-22.5166784 22.5166784H262.08938667c-13.5014816 0-22.51667733-9.00453973-22.51667734-22.5166784 0-13.5014816 9.00453973-22.51667733 22.51667734-22.51667734h450.29092906zM257.5924448 197.80938204999995c-9.00453973 0-18.00907947-9.00453973-18.00907947-22.51667734 0-13.5014816 9.00453973-22.51667733 18.00907947-22.51667733h238.6576032c9.00453973 0 18.00907947 9.00453973 18.00907947 22.51667733s-9.00453973 22.51667733-18.00907947 22.51667734H257.5924448z m0 0M779.9196928 107.75332764999996V175.29270470999995c0 13.5121376-9.00453973 22.51667733-22.51667733 22.51667734s-22.51667733-9.00453973-22.5166784-22.51667734v-90.0560544c0-4.50759787 4.50759787-13.5121376 4.50759893-18.00908053 0-4.50759787 9.00453973-4.50759787 18.00907947-4.50759787h90.0560544c13.5121376 0 22.51667733 9.00453973 22.51667733 22.5166784s-9.00453973 22.51667733-22.51667733 22.51667734h-67.53937707z m-22.51667733-180.1014528c-85.54845653 0-157.59543147 72.04697493-157.59543147 157.59543146s72.04697493 157.59543147 157.59543147 157.59543147c85.54845653 0 157.59543147-72.04697493 157.59543146-157.59543147s-72.03631893-157.59543147-157.59543146-157.59543146z m0 0"  horiz-adv-x="1024" />

    
    <glyph glyph-name="qianshou" unicode="&#59007;" d="M722.9539795 726.7569580100001V779.5078125H301.0460205v-52.7508545h-158.20312499V-11.5078125h738.31420899V726.7569580100001h-158.203125z m-369.1571045-1e-8h316.40625v-52.70141601H353.796875V726.7569580100001z m474.609375-685.51391601H195.59375v632.8125h105.45227051V621.3046875h421.90795898v52.7508545H828.40625v-632.8125zM461.375 287.49609375L372.23742675 376.08984375l-36.8811035-36.930542L457.12329102 216.89794922l282.09594726 225.68664551-32.67883301 41.13281249z"  horiz-adv-x="1024" />

    
    <glyph glyph-name="jiaojie" unicode="&#59116;" d="M772.15625001 713.0625h-65.03906251V729.41015625c0 12.12890625-5.71289063 23.5546875-15.64453125 31.37695313-8.0859375 6.328125-18.45703125 9.84375001-29.1796875 9.84374999h-47.90039063C608.76757813 785.04492188 599.01171875 798.05273438 585.828125 808.51171875c-19.86328125 15.55664063-45.79101563 24.16992188-73.21289063 24.16992188-27.33398438 0-53.34960938-8.61328125-73.21289062-24.16992188-13.18359375-10.37109375-23.02734375-23.46679689-28.56445313-37.88085938h-49.21874999c-10.72265625 0-21.09375001-3.515625-29.1796875-9.84375-9.84375001-7.82226563-15.55664063-19.24804688-15.55664063-31.37695312v-16.34765625h-65.03906249c-51.328125 0-93.1640625-42.45117188-93.16406251-94.65820313v-588.515625c0-52.20703125 41.8359375-94.65820313 93.16406251-94.65820312h520.31249998c51.328125 0 93.1640625 42.45117188 93.16406251 94.65820312V618.4921875c0 52.11914063-41.8359375 94.5703125-93.16406251 94.5703125z m-399.02343751 1.31835938h88.68164063v28.12499999c0 10.45898438 7.734375 18.10546875 12.39257812 21.70898438 9.84375001 7.734375 23.81835938 12.12890625 38.40820313 12.12890626s28.56445313-4.39453125 38.40820312-12.12890626c4.65820313-3.60351563 12.39257813-11.25 12.39257813-21.70898438v-28.12499999H650.8671875v-48.69140626H373.1328125v48.69140625z m435.9375-684.40429688c0-21.18164063-16.5234375-38.40820313-36.91406249-38.40820313H251.84374999c-20.390625 0-36.9140625 17.2265625-36.91406249 38.40820313V618.4921875c0 21.18164063 16.5234375 38.40820313 36.91406251 38.40820313h65.03906249v-6.15234375c0-12.12890625 5.71289063-23.5546875 15.64453125-31.37695313 8.0859375-6.328125 18.45703125-9.84375001 29.1796875-9.84375h300.5859375c10.72265625 0 21.09375001 3.515625 29.1796875 9.84375 9.93164063 7.82226563 15.64453125 19.24804688 15.64453125 31.37695313v6.15234375h65.03906249c20.390625 0 36.9140625-17.2265625 36.91406251-38.40820313v-588.515625zM700.70117188 394.10742188L579.5 515.484375c-11.16210938 11.16210938-29.35546875 10.98632813-40.34179689-0.52734375-10.546875-11.16210938-9.84375001-28.828125 0.96679689-39.63867188l72.421875-72.68554687H344.83203125c-0.52734375 0-1.0546875 0.08789063-1.66992188 0.08789063-15.55664063 0-28.125-12.56835938-28.12499999-28.125 0-15.38085938 12.3046875-27.86132813 27.59765624-28.125v-0.08789063h338.90625001c7.11914063 0 13.97460938 2.8125 19.07226562 7.91015625 11.07421875 11.07421875 11.07421875 28.828125 0.08789062 39.81445313zM681.27734375 271.5H342.45898437c-7.11914063 0-13.97460938-2.8125-19.07226562-7.91015625-10.98632813-10.98632813-10.98632813-28.828125 0-39.81445313l121.11328125-121.37695312c11.16210938-11.16210938 29.35546875-10.98632813 40.34179689 0.52734375 10.546875 11.16210938 9.84375001 28.828125-0.96679689 39.63867188L411.453125 215.25h267.71484375c0.52734375 0 1.0546875-0.08789063 1.66992188-0.08789063 15.55664063 0 28.125 12.56835938 28.12499999 28.12500001-0.08789063 15.46875001-12.39257813 27.86132813-27.68554687 28.21289062z"  horiz-adv-x="1024" />

    
    <glyph glyph-name="paidanhuichuan" unicode="&#58919;" d="M869.4784361 805.875H172.12486765c-14.50302017 0-26.27358811-10.40434058-26.27358811-23.2783992v-268.67370905c0-12.92660513 11.77056711-23.33094571 26.27358811-23.33094571s26.27358811 10.40434058 26.2735881 23.27839838V753.32782462h644.80639224v-738.76074308H201.02581414v88.12161338a26.27358811 26.27358811 0 0 1-52.54717537 0v-114.39520148a26.27358811 26.27358811 0 0 1 26.27358728-26.2735881h694.72621005a26.27358811 26.27358811 0 0 1 26.2735881 26.2735881V779.60141189a26.27358811 26.27358811 0 0 1-26.2735881 26.27358811zM761.65163144 623.48375345H494.55433743c-13.29443564 0-24.06660672 11.77056711-24.06660589 26.27358728s10.77217108 26.27358811 24.06660589 26.2735881h267.09729401c13.34698298 0 24.11915322-11.77056711 24.11915405-26.2735881s-10.77217108-26.27358811-24.11915405-26.27358728zM761.65163144 495.84666367H599.64868903c-13.34698298 0-24.11915322 11.77056711-24.11915324 26.27358728s10.77217108 26.27358811 24.11915324 26.2735881h162.00294241c13.34698298 0 24.11915322-11.77056711 24.11915405-26.2735881s-10.77217108-26.27358811-24.11915405-26.27358728zM646.04784543 330.00777667h-406.71514023l63.31934647 63.3193473c9.45849187 9.45849187 8.72283086 25.38028592-1.52386771 35.6269845s-26.22104077 10.98235959-35.67953266 1.52386852l-114.55284265-114.55284348a22.70038019 22.70038019 0 0 1-6.30566098-15.29122768c-0.05254733-0.63056635-0.26273584-1.26113186-0.26273583-1.83915088 0-0.57801902 0.2101885-1.10349069 0.26273583-1.68150971a22.59528552 22.59528552 0 0 1 6.30566098-15.44886969l114.55284265-114.60538998c9.45849187-9.40594455 25.38028592-8.67028436 35.62698532 1.52386771 10.29924673 10.24669941 10.92981226 26.16849344 1.52386854 35.62698531l-73.25076353 73.30331004h416.6991038c13.34698298 0 24.11915322 11.77056711 24.11915322 26.2735881s-10.77217108 26.22104077-24.11915322 26.22103995z"  horiz-adv-x="1024" />

    
    <glyph glyph-name="rukujiaojie" unicode="&#59186;" d="M422 283.99999979999996c-14.0000001 14.0000001-32.0000001 21.9999999-50.0000001 21.99999991H177.99999981c-20.00000039 0-36-7.9999998-50.0000001-21.99999991-14.0000001-14.0000001-21.9999999-32.0000001-21.99999991-50.00000009v-191.99999971c0-20.00000039 7.9999998-36 21.99999991-50.0000001 14.0000001-14.0000001 32.0000001-21.9999999 50.00000009-21.9999999h196.00000049c20.00000039 0 38.00000039 7.9999998 51.99999961 21.9999999 11.99999971 14.0000001 20.00000039 32.0000001 18 50.0000001V233.99999971c-2.00000039 18-10.00000019 36-21.9999999 50.0000001z m-51.99999961-252H177.99999981c-6.00000029 0-11.99999971 3.9999999-11.99999971 10.0000002v194.0000001c0 6.00000029 3.9999999 10.00000019 11.9999997 10.00000019h192.00000059c6.00000029 0 10.00000019-3.9999999 9.99999932-10.00000019v-194.0000001c2.00000039-6.00000029-3.9999999-10.00000019-9.99999932-10.00000019zM874.00000039 381.99999961000003v-3.9999999c0-191.99999971-158.0000001-349.9999998-350.00000068-349.99999981h-3.9999999v61.99999981h3.9999999c158.0000001 0 285.99999961 128.00000039 286.00000049 288v3.9999999h64.00000019zM919.99999971 769.99999981c-14.0000001 14.0000001-32.0000001 21.9999999-50.0000001 21.9999999h-191.99999971c-20.00000039 0-36-7.9999998-50.0000001-21.99999991-14.0000001-14.0000001-21.9999999-32.0000001-21.9999999-50.00000009v-191.99999971c0-18 7.9999998-36 21.9999999-50.0000001 14.0000001-14.0000001 32.0000001-21.9999999 50.0000001-21.9999999h191.99999971c20.00000039 0 36 7.9999998 50.0000001 21.9999999 14.0000001 14.0000001 21.9999999 32.0000001 21.9999999 50.0000001V718.00000019c0 20.00000039-7.9999998 38.00000039-21.9999999 51.99999962z m-39.99999991-244.0000002c0-6.00000029-3.9999999-10.00000019-11.9999997-9.99999932h-191.99999971c-6.00000029 0-11.99999971 3.9999999-12.00000059 9.99999932V718.00000019c0 6.00000029 3.9999999 11.99999971 12.00000059 11.99999971h191.99999971c6.00000029 0 11.99999971-3.9999999 11.9999997-11.9999997v-192.00000059zM527.99999961 728.00000039v-62.00000068h-3.9999999c-158.0000001 0-288-128.00000039-288-285.99999961v-3.99999991H173.9999999v3.99999991c0 191.99999971 158.0000001 349.9999998 349.99999981 349.9999998h3.9999999z"  horiz-adv-x="1024" />

    


  </font>
</defs>
</svg>
